<svg xmlns="http://www.w3.org/2000/svg" viewBox="0 0 595.28 841.89"><defs><style>.cls-1{fill:#e8600a;}.cls-2{fill:#c9500d;}.cls-3{fill:#fff;}.cls-4{fill:#d8dadc;}.cls-5{fill:#b1b1b2;}.cls-6{fill:#6d6d6e;}.cls-7{fill:#050505;}.cls-8{fill:none;stroke:#040505;stroke-miterlimit:10;stroke-width:2px;}.cls-9{fill:#040505;}</style></defs><g id="CÖNE"><path d="M100.67,495.42,103,512.19s-13.67-1.43-14.32,5.21h23.89s-7-8.94-.43-22S100.67,495.42,100.67,495.42Z"/><path d="M133.74,495.42l-2.36,16.77s13.66-1.43,14.31,5.21H121.8s7-8.94.43-22S133.74,495.42,133.74,495.42Z"/><path class="cls-1" d="M110.14,355.49s.64-4.84,6.46-4.95a6.28,6.28,0,0,1,6.67,4.95l35.24,131.09H75.59l34.55-131.09"/><polyline class="cls-2" points="75.59 486.58 72.09 486.58 72.09 488.89 162.87 488.89 162.87 486.58 75.59 486.58"/><path class="cls-1" d="M72.09,488.89h-3.6s-2,.38-1.94,3.66,2.1,2.85,2.1,2.85h97s2.26-.28,2.26-3.25-1.62-3.26-1.62-3.26Z"/><polygon class="cls-3" points="101.6 387.89 131.98 387.89 138.29 411.38 95.41 411.38 101.6 387.89"/><polygon class="cls-3" points="85.82 447.76 78.61 475.13 155.44 475.13 148.08 447.76 85.82 447.76"/><path class="cls-4" d="M287.75,339.22c16-1.69,26.72,4.88,29.89,7.16a2.66,2.66,0,0,1,1.1,1.91l.32,3L302,353.1a17.41,17.41,0,0,0-15.49,19.13l0,.35a17.41,17.41,0,0,0,19.13,15.49l17.09-1.8.35,3.31a2.7,2.7,0,0,1-.7,2.12c-2.65,2.84-11.72,11.22-27.76,12.9-11.72,1.24-18.81-2.81-23-10.5a5.17,5.17,0,0,0-6.63-2.25l-128.58,57a5.74,5.74,0,0,0-3.33,4A27.74,27.74,0,0,1,117.75,472L115,465.85l.24,0,12.36-16.52-3.32-7.5,2.37-1.05L120.55,427,266,362.45C266.85,349.45,272.62,340.81,287.75,339.22Z"/><path class="cls-5" d="M126.32,424.44l135.86-60.28a7.35,7.35,0,0,0,4.27-5.58c1.68-10.83,7.73-17.94,21.3-19.36,16-1.69,26.72,4.88,29.89,7.16a2.66,2.66,0,0,1,1.1,1.91l.32,3-19.86,2.09c-9.56,1-13.73,9.28-12.73,18.84L267,374.1,130.41,434.7c.16.28.33.55.48.84L123,439l-3.6-8.11L98.9,429l-.15.2L96,423a27.79,27.79,0,0,1,23.83,1.15A7.35,7.35,0,0,0,126.32,424.44Z"/><path class="cls-6" d="M121.08,426.4a26.82,26.82,0,1,0,11,24.92,7.33,7.33,0,0,1,4.25-5.91l125.6-55.73a7.59,7.59,0,0,1,9.55,3.12c4.19,6.85,11.28,9.88,23.14,9.16,16-1,28.37-13.44,28.37-13.44l-.24-2.25-17.09,1.8a17.41,17.41,0,0,1-19.13-15.49l0-.35A17.41,17.41,0,0,1,302,353.1l17.1-1.8-.25-2.38s-14.09-8.45-30.33-7.09c-14.33,1.2-20.84,8.13-22.2,20a7.51,7.51,0,0,1-4.41,6L128.36,427.06A7.4,7.4,0,0,1,121.08,426.4ZM86.81,444.88l10.76-14.77a1.64,1.64,0,0,1,1.5-.67l18.18,1.93a1.66,1.66,0,0,1,1.32,1L126,449.05a1.65,1.65,0,0,1-.18,1.63l-10.76,14.77a1.63,1.63,0,0,1-1.5.67l-18.17-1.94a1.64,1.64,0,0,1-1.33-1l-7.41-16.71A1.64,1.64,0,0,1,86.81,444.88Z"/><path class="cls-5" d="M132.37,436l.14.33a5.09,5.09,0,0,0,6.71,2.58L263.05,384a5.08,5.08,0,0,0,2.58-6.71l-.14-.33a5.09,5.09,0,0,0-6.71-2.58L135,429.32A5.08,5.08,0,0,0,132.37,436Z"/><path class="cls-7" d="M142.61,446.13c1.62,2.8-1,3.57-1,3.57L136,453.29c-15.83,10.3-32.26,15.41-39.24,16.86s-21.53-2-26-11.32,8.18-14.3,8.18-14.3l-.18,5.53s-11.83,5.2,3,13.5S124.3,456,124.3,456l10.24-5.84s.82-4.72,2.35-4.5.79,2.64.79,2.64.56,1.72,1.68.64a2.39,2.39,0,0,0,.66-1.91l0-.18Z"/><path class="cls-7" d="M149.14,443.23a177.79,177.79,0,0,0,23.67.62c13.45-.51,17.62-9,19.42-13.19,2.07-4.81,0-6.54,0-6.54l-1.65.73-.45,2.4C188.77,430.06,188,426,188,426s.13-2-.89-2.31S186,426.9,186,426.9l-.3,1.36a13.84,13.84,0,0,1-8.35,10c-9.28,3.65-22.43,2.42-22.43,2.42Z"/><polygon class="cls-7" points="102.08 401.72 112.21 405.89 103.79 412.61 104.81 409.89 102.08 409.98 108.21 406.65 100.47 403.51 103.28 403.68 102.08 401.72"/><polygon class="cls-7" points="131.02 401.72 120.89 405.89 129.31 412.61 128.29 409.89 131.02 409.98 124.89 406.65 132.63 403.51 131.93 402.57 131.02 401.72"/></g><g id="Calque_3" data-name="Calque 3"><path d="M326.79,495.27,329.15,512s-13.66-1.43-14.31,5.2h23.89s-7-8.93-.43-22S326.79,495.27,326.79,495.27Z"/><path d="M359.86,495.27,357.49,512s13.67-1.43,14.32,5.2H347.92s7-8.93.43-22S359.86,495.27,359.86,495.27Z"/><path class="cls-1" d="M336.26,355.34s.64-4.84,6.45-4.95a6.28,6.28,0,0,1,6.68,4.95l35.24,131.08H301.71l34.55-131.08"/><polyline class="cls-2" points="301.71 486.42 298.21 486.42 298.21 488.74 388.99 488.74 388.99 486.42 301.71 486.42"/><path class="cls-1" d="M298.21,488.74h-3.6s-2,.37-1.94,3.66,2.1,2.85,2.1,2.85h97s2.26-.28,2.26-3.25-1.61-3.26-1.61-3.26Z"/><polygon class="cls-3" points="327.72 387.74 358.1 387.74 364.41 411.23 321.53 411.23 327.72 387.74"/><polygon class="cls-3" points="311.94 447.61 304.73 474.97 381.55 474.97 374.19 447.61 311.94 447.61"/><path class="cls-8" d="M328,411.85s.34-6.43,5.1-6.37,5.11,6.37,5.11,6.37"/><path class="cls-8" d="M349,411.85s.34-6.43,5.11-6.37,5.1,6.37,5.1,6.37"/><path class="cls-9" d="M316.73,429.43s-13.52-.37-15-26.08c0,0,.08-2.23-1.2-1.76s-.82,2.23-.82,2.23.74,2.24-.71,2.2-1.48-1.8-1.48-1.8l-3.56.45s-.77,22.51,20.75,32.5Z"/><path class="cls-9" d="M370.52,434l19.13,14.32s7,5.62,9-4.21c0,0,.47-4.77.59-10.22s3.2-6.38,2.94,0l5.49.39s2-.05,1.81,1.87-2.11,1.36-2.11,1.36v1.74s2.13-.12,2.12,1.41-2,1.15-2,1.15l.12,1.57a1.56,1.56,0,0,1,1.9,1.66c0,2-2,1.36-2,1.36l-5.92-.17s-2.68,15.28-13.74,5.62L371.9,439.1Z"/><path class="cls-8" d="M324.83,435.65s1.78,14.73,18.72,13,17.56-13,17.56-13"/></g></svg>