<svg xmlns="http://www.w3.org/2000/svg" viewBox="0 0 595.28 841.89"><defs><style>.cls-1{fill:#e8d29c;}.cls-2{fill:#bfa66d;}.cls-3,.cls-4{fill:#fddf19;}.cls-4{stroke:#020202;}.cls-11,.cls-12,.cls-13,.cls-14,.cls-4{stroke-miterlimit:10;}.cls-5{fill:#2f2c36;}.cls-6{fill:#e8600a;}.cls-7{fill:#c9500d;}.cls-8{fill:#fff;}.cls-9{fill:#050505;}.cls-10{fill:#441919;}.cls-11{fill:#f9f9f9;}.cls-11,.cls-13{stroke:#000;stroke-width:0.25px;}.cls-12,.cls-13,.cls-14{fill:none;}.cls-12,.cls-14{stroke:#040505;}.cls-14{stroke-width:2px;}</style></defs><g id="panneau"><g id="Calque_5" data-name="Calque 5"><polygon class="cls-1" points="158.14 340.94 151.97 402.99 161.82 403.97 167.98 342.07 158.14 340.94"/><polygon class="cls-2" points="157.4 348.41 167.25 349.39 167.98 342.05 158.14 340.94 157.4 348.41"/><polygon class="cls-1" points="388.66 363.87 382.49 425.92 392.35 426.9 398.5 365 388.66 363.87"/><polygon class="cls-2" points="387.92 371.33 397.77 372.31 398.5 364.98 388.66 363.87 387.92 371.33"/></g><g id="Haut"><rect class="cls-3" x="113.22" y="284.93" width="335.72" height="68.2" rx="13.45" transform="translate(32.96 -26.25) rotate(5.68)"/><polygon points="240.77 280.76 236.78 280.36 179.65 343.21 183.64 343.61 240.77 280.76"/><polygon points="231.97 279.88 227.28 279.42 170.15 342.27 174.84 342.73 231.97 279.88"/><polygon points="222.48 278.94 218.41 278.53 161.28 341.38 165.35 341.79 222.48 278.94"/><polygon points="213.61 278.06 208.35 277.53 151.22 340.38 156.48 340.91 213.61 278.06"/><polygon points="259.13 282.58 254.44 282.12 197.31 344.97 202 345.43 259.13 282.58"/><polygon points="249.64 281.64 245.57 281.24 188.44 344.08 192.51 344.49 249.64 281.64"/><polygon points="268.28 283.49 263.94 283.06 206.81 345.91 211.14 346.34 268.28 283.49"/><polygon points="277.14 284.38 273.08 283.97 215.95 346.82 220.01 347.23 277.14 284.38"/><polygon points="286.64 285.32 281.94 284.85 224.81 347.7 229.51 348.17 286.64 285.32"/><polygon points="148.88 271.62 144.19 271.15 113.83 304.55 113.2 310.87 148.88 271.62"/><polygon points="157.68 272.49 153.69 272.1 112.56 317.34 112.02 322.72 157.68 272.49"/><polygon points="139.39 270.67 135.33 270.27 115.02 292.61 114.47 298.08 139.39 270.67"/><polygon points="296.99 286.35 291.44 285.8 234.31 348.65 239.86 349.2 296.99 286.35"/><path d="M130.52,269.79l-3.33-.33h-.09l-11,12.07-.46,4.61Z"/><polygon points="203.55 277.06 198.86 276.59 141.72 339.44 146.42 339.9 203.55 277.06"/><polygon points="447.13 345.58 426.93 367.81 430.24 368.13 446.69 350.04 447.13 345.58"/><polygon points="194.05 276.11 189.99 275.71 132.86 338.56 136.92 338.96 194.05 276.11"/><polygon points="185.19 275.23 180.85 274.8 123.72 337.65 128.05 338.08 185.19 275.23"/><path d="M176.05,274.32l-4.7-.47-55.84,61.43a9.47,9.47,0,0,0,3.51,1.77Z"/><path d="M166.55,273.38l-4.06-.41L111.8,328.73a10.61,10.61,0,0,0,1.21,3.54Z"/><polygon points="360.52 292.67 356.46 292.26 299.32 355.11 303.39 355.52 360.52 292.67"/><polygon points="433.13 299.89 428.79 299.46 371.66 362.31 376 362.74 433.13 299.89"/><polygon points="305.86 287.23 301.79 286.83 244.66 349.68 248.72 350.08 305.86 287.23"/><path d="M442,300.78l-.25,0-3.8-.37L380.8,363.22l4.06.4Z"/><polygon points="423.99 298.98 419.3 298.51 362.16 361.36 366.86 361.83 423.99 298.98"/><polygon points="414.49 298.04 410.43 297.63 353.3 360.48 357.36 360.89 414.49 298.04"/><polygon points="447.77 339.11 448.4 332.79 417.43 366.86 422.13 367.33 447.77 339.11"/><path d="M450.23,314.38l.22-2.18a11.15,11.15,0,0,0-.18-3.38L399.17,365l4.59.46Z"/><path d="M435.05,368.61c5.37.49,10.16-3.75,10.74-9.52l.25-2.58Z"/><polygon points="405.63 297.15 401.63 296.76 344.5 359.61 348.5 360 405.63 297.15"/><polygon points="449.05 326.32 449.59 320.85 408.57 365.98 412.63 366.38 449.05 326.32"/><path d="M448.6,304.9a9.9,9.9,0,0,0-2.7-2.66L389.67,364.1l4.69.47Z"/><polygon points="342.51 290.88 337.82 290.41 280.69 353.26 285.38 353.73 342.51 290.88"/><polygon points="333.02 289.93 328.95 289.53 271.82 352.38 275.88 352.78 333.02 289.93"/><polygon points="324.15 289.05 320.16 288.65 263.02 351.5 267.02 351.9 324.15 289.05"/><polygon points="315.35 288.18 310.66 287.71 253.53 350.56 258.22 351.02 315.35 288.18"/><polygon points="378.47 294.45 374.82 294.09 317.69 356.94 321.33 357.3 378.47 294.45"/><polygon points="387.33 295.33 383.27 294.93 326.14 357.78 330.2 358.18 387.33 295.33"/><polygon points="351.65 291.79 347.32 291.35 290.19 354.2 294.52 354.64 351.65 291.79"/><polygon points="396.83 296.28 392.14 295.81 335 358.66 339.7 359.13 396.83 296.28"/><polygon points="370.02 293.61 365.32 293.14 308.19 356 312.88 356.46 370.02 293.61"/><rect class="cls-4" x="118.09" y="290.13" width="325.98" height="57.82" rx="7.39" transform="translate(32.96 -26.25) rotate(5.68)"/><path class="cls-5" d="M133.66,296.87l3.27,12.29,5.58-11.42,2.32.22-1.43,14.53-1.78-.18.55-5.65.77-6.09-5.6,11.32-1.36-.13-3.29-12.16-.42,6.09-.55,5.66-1.78-.18,1.42-14.52Z"/><path class="cls-5" d="M150.44,313.38a4.32,4.32,0,0,1-3.19-1.77,5.61,5.61,0,0,1-.9-4l0-.34a7,7,0,0,1,.85-2.81,4.7,4.7,0,0,1,1.8-1.82,3.88,3.88,0,0,1,2.29-.5,3.65,3.65,0,0,1,2.91,1.69,6.27,6.27,0,0,1,.7,4.07l-.07.77L148,308a4,4,0,0,0,.62,2.66,2.64,2.64,0,0,0,2,1.19,2.79,2.79,0,0,0,1.58-.25,3.88,3.88,0,0,0,1.21-.95l1,1A4.16,4.16,0,0,1,150.44,313.38Zm.73-9.7a2.23,2.23,0,0,0-1.82.64,4.13,4.13,0,0,0-1.1,2.2l5,.49v-.14a3.73,3.73,0,0,0-.49-2.25A2.1,2.1,0,0,0,151.17,303.68Z"/><path class="cls-5" d="M162.12,305.09a4.92,4.92,0,0,0-.83-.15,2.27,2.27,0,0,0-2.45,1.32l-.75,7.66-1.72-.17L157.43,303l1.67.17-.1,1.24a2.68,2.68,0,0,1,2.54-1.21,1.71,1.71,0,0,1,.75.22Z"/><path class="cls-5" d="M166.79,313.45a2.36,2.36,0,0,0,1.67-.44,2.16,2.16,0,0,0,.91-1.42l1.63.16a3.67,3.67,0,0,1-.77,1.71,4.17,4.17,0,0,1-3.58,1.5,4,4,0,0,1-3.13-1.79,6.16,6.16,0,0,1-.81-4.14l0-.31a6.87,6.87,0,0,1,.81-2.75,4.38,4.38,0,0,1,1.73-1.76,4.25,4.25,0,0,1,2.45-.44,3.9,3.9,0,0,1,2.71,1.36,4,4,0,0,1,.92,2.94l-1.63-.16a2.62,2.62,0,0,0-.57-1.79,2.26,2.26,0,0,0-1.57-.84,2.36,2.36,0,0,0-2.13.82,5,5,0,0,0-1,2.85l0,.35a5,5,0,0,0,.44,2.95A2.36,2.36,0,0,0,166.79,313.45Z"/><path class="cls-5" d="M173.94,301.69a1.18,1.18,0,0,1,.33-.74.91.91,0,0,1,.79-.23.92.92,0,0,1,.73.38,1.11,1.11,0,0,1,.19.78,1.15,1.15,0,0,1-.33.73,1,1,0,0,1-.8.22.91.91,0,0,1-.72-.37A1.07,1.07,0,0,1,173.94,301.69Zm.52,13.83-1.71-.17,1.05-10.79,1.72.17Z"/><path class="cls-5" d="M177.33,310.26a6.71,6.71,0,0,1,1.49-3.88,3.39,3.39,0,0,1,3-1.23,3.36,3.36,0,0,1,2.67,1.57l.55-5.63,1.72.17-1.5,15.32-1.58-.15,0-1.17a3.56,3.56,0,0,1-5.7-.74,6.8,6.8,0,0,1-.71-4.12Zm1.7.38a5.07,5.07,0,0,0,.43,2.94,2.24,2.24,0,0,0,1.85,1.23,2.5,2.5,0,0,0,2.54-1.34l.49-5a2.54,2.54,0,0,0-2.22-1.76,2.28,2.28,0,0,0-2.08.86A5.62,5.62,0,0,0,179,310.64Z"/><path class="cls-5" d="M192.1,317.45a4.26,4.26,0,0,1-3.18-1.77,5.65,5.65,0,0,1-.91-4l0-.34a6.86,6.86,0,0,1,.85-2.81,4.75,4.75,0,0,1,1.79-1.82,3.82,3.82,0,0,1,2.3-.49,3.65,3.65,0,0,1,2.91,1.68,6.36,6.36,0,0,1,.7,4.08l-.08.76-6.81-.66a4,4,0,0,0,.62,2.66,2.64,2.64,0,0,0,2,1.19,2.82,2.82,0,0,0,1.59-.25,4,4,0,0,0,1.21-.95l1,1A4.18,4.18,0,0,1,192.1,317.45Zm.74-9.7a2.24,2.24,0,0,0-1.83.64,4.2,4.2,0,0,0-1.1,2.2l5,.49,0-.14a3.73,3.73,0,0,0-.5-2.25A2.11,2.11,0,0,0,192.84,307.75Z"/><path class="cls-5" d="M201.48,315.63l3.3-8,1.76.17-4.67,10.44-1.31-.13L198,306.92l1.75.18Z"/><path class="cls-5" d="M207.08,313.16a6.68,6.68,0,0,1,.86-2.79,4.54,4.54,0,0,1,1.81-1.8,4.16,4.16,0,0,1,2.43-.46,4.1,4.1,0,0,1,3.17,1.85,6.15,6.15,0,0,1,.87,4.19v.13a6.77,6.77,0,0,1-.84,2.77,4.55,4.55,0,0,1-1.8,1.79,4.2,4.2,0,0,1-2.47.46,4.1,4.1,0,0,1-3.16-1.85,6.13,6.13,0,0,1-.88-4.16Zm1.7.39a4.92,4.92,0,0,0,.5,3,2.53,2.53,0,0,0,4.16.39,5.42,5.42,0,0,0,1.07-3,4.87,4.87,0,0,0-.5-3,2.45,2.45,0,0,0-2-1.3,2.41,2.41,0,0,0-2.16.88A5.41,5.41,0,0,0,208.78,313.55Z"/><path class="cls-5" d="M221.5,306.58l-.26,2.62,1.88.18-.14,1.43-1.88-.19-.66,6.71a1.55,1.55,0,0,0,.16,1,1,1,0,0,0,.82.41,3.61,3.61,0,0,0,.83,0l-.14,1.49a4.74,4.74,0,0,1-1.34.07,2.09,2.09,0,0,1-1.67-.92,3.4,3.4,0,0,1-.38-2.18l.66-6.69-1.83-.18.14-1.43,1.83.18.26-2.61Z"/><path class="cls-5" d="M229.82,311.71a4.86,4.86,0,0,0-.84-.15,2.27,2.27,0,0,0-2.44,1.32l-.75,7.66-1.72-.17,1.05-10.79,1.68.16-.1,1.25a2.66,2.66,0,0,1,2.54-1.21,1.6,1.6,0,0,1,.75.21Z"/><path class="cls-5" d="M234.66,321.61a4.3,4.3,0,0,1-3.18-1.77,5.55,5.55,0,0,1-.91-4l0-.34a6.87,6.87,0,0,1,.86-2.81,4.68,4.68,0,0,1,1.79-1.82,3.88,3.88,0,0,1,2.29-.5,3.69,3.69,0,0,1,2.92,1.69,6.4,6.4,0,0,1,.7,4.07l-.08.77-6.81-.66a4,4,0,0,0,.61,2.66,2.66,2.66,0,0,0,2,1.19,2.78,2.78,0,0,0,1.58-.25,3.88,3.88,0,0,0,1.21-.95l1,1A4.18,4.18,0,0,1,234.66,321.61Zm.74-9.7a2.24,2.24,0,0,0-1.83.64,4.13,4.13,0,0,0-1.1,2.2l5,.49v-.14a3.66,3.66,0,0,0-.49-2.25A2.1,2.1,0,0,0,235.4,311.91Z"/><path class="cls-5" d="M244.75,321.07a2.36,2.36,0,0,0,1.67-.44,2.16,2.16,0,0,0,.91-1.42l1.63.16a3.67,3.67,0,0,1-.77,1.71,4.17,4.17,0,0,1-3.58,1.5,4.07,4.07,0,0,1-3.13-1.79,6.23,6.23,0,0,1-.82-4.15l0-.3a6.82,6.82,0,0,1,.81-2.75,4.38,4.38,0,0,1,1.73-1.76,4.25,4.25,0,0,1,2.45-.44,3.9,3.9,0,0,1,2.71,1.36,4.08,4.08,0,0,1,.92,2.94l-1.63-.16a2.62,2.62,0,0,0-.57-1.79,2.22,2.22,0,0,0-1.58-.84,2.38,2.38,0,0,0-2.13.82,5,5,0,0,0-1,2.85l0,.35a5,5,0,0,0,.44,2.95A2.36,2.36,0,0,0,244.75,321.07Z"/><path class="cls-5" d="M250.64,317.42a6.77,6.77,0,0,1,.86-2.8,4.57,4.57,0,0,1,1.81-1.79,4.4,4.4,0,0,1,5.6,1.39,6.12,6.12,0,0,1,.87,4.18v.13a6.72,6.72,0,0,1-.84,2.77,4.45,4.45,0,0,1-1.8,1.8,4.2,4.2,0,0,1-2.47.46,4.1,4.1,0,0,1-3.16-1.85,6.09,6.09,0,0,1-.87-4.16Zm1.71.39a4.81,4.81,0,0,0,.49,2.95,2.53,2.53,0,0,0,4.16.4,5.35,5.35,0,0,0,1.07-3,4.85,4.85,0,0,0-.5-2.95,2.51,2.51,0,0,0-4.14-.42A5.31,5.31,0,0,0,252.35,317.81Z"/><path class="cls-5" d="M264.09,313.39l-.07,1.36a3.6,3.6,0,0,1,3.16-1.26c2.13.2,3.07,1.6,2.84,4.17l-.7,7.13-1.72-.17.7-7.14a2.59,2.59,0,0,0-.33-1.77,1.9,1.9,0,0,0-1.46-.71,2.4,2.4,0,0,0-1.52.34,3.18,3.18,0,0,0-1.11,1.16l-.75,7.69-1.72-.17,1.06-10.79Z"/><path class="cls-5" d="M272.76,325.13l.92-9.37-1.59-.15.14-1.43,1.59.16.1-1.11a3.89,3.89,0,0,1,1.13-2.6,3.16,3.16,0,0,1,2.54-.71,4.29,4.29,0,0,1,1.16.29l-.24,1.47a6,6,0,0,0-.92-.18,1.65,1.65,0,0,0-1.34.4,2.21,2.21,0,0,0-.6,1.46l-.11,1.14,2.14.21-.14,1.43-2.14-.21-.92,9.37Z"/><path class="cls-5" d="M279.87,312a1.18,1.18,0,0,1,.33-.74,1.1,1.1,0,0,1,1.52.15,1.18,1.18,0,0,1,.18.79,1.1,1.1,0,0,1-.33.72.94.94,0,0,1-.79.22.92.92,0,0,1-.73-.37A1.11,1.11,0,0,1,279.87,312Zm.52,13.83-1.72-.16,1.06-10.8,1.72.17Z"/><path class="cls-5" d="M289.35,326.75a4.11,4.11,0,0,1-.13-1.16,3.79,3.79,0,0,1-3,1.06,3.43,3.43,0,0,1-2.36-1.15,3,3,0,0,1-.72-2.38,3.14,3.14,0,0,1,1.45-2.5,5.38,5.38,0,0,1,3.45-.6l1.67.16.08-.85a2.14,2.14,0,0,0-.38-1.59,2.12,2.12,0,0,0-1.54-.73,2.42,2.42,0,0,0-1.59.35,1.5,1.5,0,0,0-.74,1.14l-1.73-.17a2.61,2.61,0,0,1,.69-1.5,3.63,3.63,0,0,1,1.57-1.05,4.5,4.5,0,0,1,2.05-.25,3.85,3.85,0,0,1,2.63,1.2,3.46,3.46,0,0,1,.77,2.67l-.48,5a6.42,6.42,0,0,0,.12,2.4l0,.16Zm-2.72-1.69a2.83,2.83,0,0,0,1.58-.29,2.76,2.76,0,0,0,1.17-1.07l.21-2.21-1.35-.13c-2.1-.21-3.22.35-3.35,1.67a1.73,1.73,0,0,0,.41,1.41A2,2,0,0,0,286.63,325.06Z"/><path class="cls-5" d="M296.18,316.52l-.08,1.36a3.61,3.61,0,0,1,3.17-1.26c2.12.21,3.07,1.6,2.83,4.18l-.7,7.13-1.72-.17.7-7.14a2.64,2.64,0,0,0-.32-1.78,1.92,1.92,0,0,0-1.47-.7,2.31,2.31,0,0,0-1.51.33,3.17,3.17,0,0,0-1.11,1.16l-.76,7.69-1.71-.17,1.05-10.79Z"/><path class="cls-5" d="M308.16,327.27a2.42,2.42,0,0,0,1.67-.44,2.17,2.17,0,0,0,.9-1.42l1.63.15a3.49,3.49,0,0,1-.77,1.71,4.14,4.14,0,0,1-1.59,1.2,4.28,4.28,0,0,1-5.11-1.49,6.16,6.16,0,0,1-.82-4.14l0-.31a6.87,6.87,0,0,1,.81-2.75,4.31,4.31,0,0,1,1.74-1.75,4.15,4.15,0,0,1,2.45-.45,3.89,3.89,0,0,1,2.7,1.36,4,4,0,0,1,.92,2.94l-1.63-.15a2.63,2.63,0,0,0-.57-1.8,2.19,2.19,0,0,0-1.57-.83,2.35,2.35,0,0,0-2.13.81,5.06,5.06,0,0,0-1,2.86l0,.35a5,5,0,0,0,.43,2.94A2.37,2.37,0,0,0,308.16,327.27Z"/><path class="cls-5" d="M318.11,329.76a4.25,4.25,0,0,1-3.18-1.76,5.67,5.67,0,0,1-.91-4l0-.34a7,7,0,0,1,.85-2.82,4.65,4.65,0,0,1,1.79-1.81,3.83,3.83,0,0,1,2.3-.5,3.7,3.7,0,0,1,2.91,1.68,6.38,6.38,0,0,1,.7,4.08l-.08.77-6.81-.67a4,4,0,0,0,.62,2.67,2.67,2.67,0,0,0,2,1.19,3,3,0,0,0,1.59-.25,4.16,4.16,0,0,0,1.21-.95l1,1A4.15,4.15,0,0,1,318.11,329.76Zm.74-9.69a2.22,2.22,0,0,0-1.83.64,4.17,4.17,0,0,0-1.1,2.19l5,.49,0-.14a3.68,3.68,0,0,0-.5-2.24A2.08,2.08,0,0,0,318.85,320.07Z"/><path class="cls-5" d="M339.39,326.58a7,7,0,0,1-1.49,3.71,3.17,3.17,0,0,1-2.82,1.13,2.13,2.13,0,0,1-2.07-1.89,3.77,3.77,0,0,1-1.27,1.15,2.55,2.55,0,0,1-1.38.28,2.2,2.2,0,0,1-1.88-1.35,5.41,5.41,0,0,1-.19-3.25,9.25,9.25,0,0,1,1-2.87,5.32,5.32,0,0,1,1.65-1.89,2.87,2.87,0,0,1,1.93-.56,4,4,0,0,1,1.33.35,4.84,4.84,0,0,1,1.26,1l-1,5.48c-.27,1.53.06,2.33,1,2.42a2,2,0,0,0,1.81-.95,6.3,6.3,0,0,0,1-2.84c.37-2.58.12-4.59-.77-6.05a5.45,5.45,0,0,0-4.42-2.49,5.85,5.85,0,0,0-3.42.67,6.68,6.68,0,0,0-2.56,2.65,11.84,11.84,0,0,0-1.37,4.23,11.09,11.09,0,0,0,.14,4.35,5.7,5.7,0,0,0,1.77,3,5.6,5.6,0,0,0,3.22,1.29,6.48,6.48,0,0,0,1.7-.05,5.17,5.17,0,0,0,1.45-.44l.23,1.18a4.74,4.74,0,0,1-1.59.49,7.09,7.09,0,0,1-1.95.06,7,7,0,0,1-3.89-1.51,6.8,6.8,0,0,1-2.19-3.47,12.28,12.28,0,0,1-.23-5,12.67,12.67,0,0,1,1.62-4.82,8.26,8.26,0,0,1,3.13-3.11,7.06,7.06,0,0,1,4.11-.8,6.91,6.91,0,0,1,3.86,1.51,6.59,6.59,0,0,1,2.14,3.46A12.35,12.35,0,0,1,339.39,326.58Zm-9.62-.08a4.18,4.18,0,0,0,0,2.2,1.25,1.25,0,0,0,1.12.87,1.48,1.48,0,0,0,1.12-.4,3.86,3.86,0,0,0,1-1.37l0-.09.92-5a2.36,2.36,0,0,0-1.09-.4,2.09,2.09,0,0,0-1.92,1A7.57,7.57,0,0,0,329.77,326.5Z"/><path class="cls-5" d="M345.29,332.42a4.28,4.28,0,0,1-3.19-1.77,5.6,5.6,0,0,1-.9-4l0-.34a7,7,0,0,1,.85-2.81,4.84,4.84,0,0,1,1.8-1.82,3.79,3.79,0,0,1,2.29-.49,3.68,3.68,0,0,1,2.92,1.68,6.37,6.37,0,0,1,.69,4.08l-.07.76-6.81-.66a4,4,0,0,0,.61,2.66,2.66,2.66,0,0,0,2,1.19,2.78,2.78,0,0,0,1.58-.25,3.88,3.88,0,0,0,1.21-.95l1,1A4.18,4.18,0,0,1,345.29,332.42Zm.73-9.7a2.23,2.23,0,0,0-1.82.64,4.13,4.13,0,0,0-1.1,2.2l5,.49v-.14a3.73,3.73,0,0,0-.49-2.25A2.13,2.13,0,0,0,346,322.72Z"/><path class="cls-5" d="M353.9,322.16l-.08,1.2a3.63,3.63,0,0,1,3.12-1.1,2.88,2.88,0,0,1,2.71,2,3.84,3.84,0,0,1,1.43-1.12,3.61,3.61,0,0,1,1.94-.3q3.32.33,3,4.09l-.71,7.23-1.72-.16.7-7.13a2.66,2.66,0,0,0-.32-1.78,2.13,2.13,0,0,0-1.6-.73,2.2,2.2,0,0,0-1.65.46,2.6,2.6,0,0,0-.9,1.58l-.7,7.16-1.73-.17.69-7.07c.16-1.57-.48-2.43-1.91-2.57a2.31,2.31,0,0,0-2.47,1.32l-.77,7.88-1.72-.16,1.06-10.8Z"/><path class="cls-5" d="M374.11,335a4.11,4.11,0,0,1-.13-1.16,3.7,3.7,0,0,1-3,1.06,3.43,3.43,0,0,1-2.35-1.14,3,3,0,0,1-.73-2.38,3.15,3.15,0,0,1,1.45-2.51,5.41,5.41,0,0,1,3.45-.6l1.67.16.09-.84a2.21,2.21,0,0,0-.39-1.6,2.07,2.07,0,0,0-1.53-.73,2.43,2.43,0,0,0-1.6.35,1.54,1.54,0,0,0-.74,1.15l-1.73-.17a2.78,2.78,0,0,1,.69-1.51,3.69,3.69,0,0,1,1.57-1.05,4.66,4.66,0,0,1,2.05-.24,3.82,3.82,0,0,1,2.64,1.2,3.51,3.51,0,0,1,.77,2.66l-.49,5a6.42,6.42,0,0,0,.12,2.4v.16Zm-2.71-1.68a2.89,2.89,0,0,0,1.57-.3,2.6,2.6,0,0,0,1.17-1.07l.22-2.21-1.35-.13c-2.11-.21-3.23.35-3.36,1.67a1.76,1.76,0,0,0,.41,1.41A2,2,0,0,0,371.4,333.35Z"/><path class="cls-5" d="M379.6,321.78a1.18,1.18,0,0,1,.33-.73.91.91,0,0,1,.79-.23.92.92,0,0,1,.73.38,1.09,1.09,0,0,1,.19.78,1.15,1.15,0,0,1-.33.73,1,1,0,0,1-.8.22.94.94,0,0,1-.72-.37A1.14,1.14,0,0,1,379.6,321.78Zm.53,13.84-1.72-.17,1-10.79,1.72.17Z"/><path class="cls-5" d="M384.74,336.07,383,335.9l1.5-15.32,1.72.17Z"/><path class="cls-5" d="M387.63,335.38a1.17,1.17,0,0,1,.34-.77,1,1,0,0,1,.83-.25,1,1,0,0,1,.77.4,1.22,1.22,0,0,1,.2.83,1.15,1.15,0,0,1-.35.74,1.06,1.06,0,0,1-.84.23,1,1,0,0,1-.76-.39A1.12,1.12,0,0,1,387.63,335.38Z"/><path class="cls-5" d="M396.67,335.92a2.38,2.38,0,0,0,1.66-.44,2.18,2.18,0,0,0,.91-1.42l1.63.15a3.49,3.49,0,0,1-.77,1.71,4.14,4.14,0,0,1-1.59,1.2,4.28,4.28,0,0,1-5.11-1.49,6.1,6.1,0,0,1-.82-4.14l0-.31a6.87,6.87,0,0,1,.81-2.75,4.31,4.31,0,0,1,1.74-1.75,4.15,4.15,0,0,1,2.45-.45,3.91,3.91,0,0,1,2.7,1.36,4,4,0,0,1,.92,2.94l-1.63-.16a2.62,2.62,0,0,0-.57-1.79,2.21,2.21,0,0,0-1.57-.83,2.33,2.33,0,0,0-2.13.81,5.06,5.06,0,0,0-1,2.86l0,.35a4.89,4.89,0,0,0,.43,2.94A2.37,2.37,0,0,0,396.67,335.92Z"/><path class="cls-5" d="M402.55,332.26a6.87,6.87,0,0,1,.86-2.79,4.54,4.54,0,0,1,1.81-1.8,4.27,4.27,0,0,1,2.43-.46,4.15,4.15,0,0,1,3.18,1.86,6.23,6.23,0,0,1,.87,4.18l0,.13a6.92,6.92,0,0,1-.83,2.77,4.49,4.49,0,0,1-1.8,1.79,4.23,4.23,0,0,1-2.47.47,4.15,4.15,0,0,1-3.17-1.85,6.16,6.16,0,0,1-.87-4.17Zm1.71.39a4.9,4.9,0,0,0,.49,3,2.43,2.43,0,0,0,2,1.29,2.39,2.39,0,0,0,2.19-.9,5.32,5.32,0,0,0,1.08-3,4.91,4.91,0,0,0-.51-2.95,2.51,2.51,0,0,0-4.14-.42A5.27,5.27,0,0,0,404.26,332.65Z"/><path class="cls-5" d="M416,328.23l-.07,1.2a3.63,3.63,0,0,1,3.12-1.1,2.88,2.88,0,0,1,2.7,2,4.06,4.06,0,0,1,1.43-1.13,3.75,3.75,0,0,1,1.95-.29q3.3.33,3,4.09l-.71,7.23-1.72-.17.7-7.12a2.61,2.61,0,0,0-.32-1.78,2.08,2.08,0,0,0-1.6-.73,2.2,2.2,0,0,0-1.65.46,2.52,2.52,0,0,0-.89,1.58l-.71,7.16-1.72-.17.69-7.07c.15-1.57-.49-2.43-1.92-2.57a2.29,2.29,0,0,0-2.46,1.32L415,339l-1.72-.17,1.06-10.79Z"/></g></g><g id="CÖNE_g" data-name="CÖNE g"><path d="M100.5,495.55l2.37,16.77s-13.67-1.43-14.32,5.2h23.89s-7-8.93-.43-22S100.5,495.55,100.5,495.55Z"/><path d="M133.57,495.55l-2.36,16.77s13.66-1.43,14.31,5.2H121.63s7-8.93.43-22S133.57,495.55,133.57,495.55Z"/><path class="cls-6" d="M110,355.62s.64-4.84,6.46-4.95a6.27,6.27,0,0,1,6.67,4.95L158.34,486.7H75.42L110,355.62"/><polyline class="cls-7" points="75.42 486.7 71.92 486.7 71.92 489.02 162.7 489.02 162.7 486.7 75.42 486.7"/><path class="cls-6" d="M71.92,489h-3.6s-2,.37-1.94,3.66,2.1,2.85,2.1,2.85h97.05s2.26-.28,2.26-3.25-1.62-3.26-1.62-3.26Z"/><polygon class="cls-8" points="101.43 388.02 131.81 388.02 138.13 411.51 95.24 411.51 101.43 388.02"/><polygon class="cls-8" points="85.65 447.89 78.44 475.25 155.26 475.25 147.91 447.89 85.65 447.89"/><polygon class="cls-9" points="102.08 401.72 112.21 405.89 103.79 412.61 104.81 409.89 102.08 409.98 108.21 406.65 100.47 403.51 103.28 403.68 102.08 401.72"/><polygon class="cls-9" points="131.02 401.72 120.89 405.89 129.31 412.61 128.29 409.89 131.02 409.98 124.89 406.65 132.63 403.51 131.93 402.57 131.02 401.72"/></g><g id="Calque_7" data-name="Calque 7"><g id="Calque_8" data-name="Calque 8"><path class="cls-10" d="M100.6,439s1.49,4.85,4.39,5.39,24.39,1,26.23-2,1.93-4.32,1.93-4.32l-33-.4.15,2.1Z"/></g><path class="cls-11" d="M103.32,438.44a3.38,3.38,0,0,0,1,3,3.5,3.5,0,0,0,.36,4.06c1.68,2.07,11.17,5.22,19.94,1.09s5.44-3.05,5.44-3.05a2.63,2.63,0,0,0,.05-2.48s1.4-2.17-.35-2.85S103.32,438.44,103.32,438.44Z"/><path class="cls-12" d="M133.42,437.92s-.58,9.32-16,10.74-17.09-10.74-17.09-10.74Z"/><path class="cls-13" d="M104.3,441.42l3.53.38.3,1.07.68-1.11s10.88,1.46,16.34-.34l.64.51.42-.51a14.91,14.91,0,0,0,3.88-.38"/></g><g id="cone_d" data-name="cone d"><path d="M418.78,498.78l2,13.84s-11.28-1.18-11.81,4.3h19.72s-5.77-7.38-.36-18.14S418.78,498.78,418.78,498.78Z"/><path d="M446.08,498.78l-1.95,13.84s11.28-1.18,11.81,4.3H436.22s5.77-7.38.36-18.14S446.08,498.78,446.08,498.78Z"/><path class="cls-6" d="M426.6,383.28s.53-4,5.33-4.09a5.17,5.17,0,0,1,5.5,4.09l29.1,108.2H398.08l28.52-108.2"/><polyline class="cls-7" points="398.08 491.48 395.19 491.48 395.19 493.39 470.13 493.39 470.13 491.48 398.08 491.48"/><path class="cls-6" d="M395.19,493.39h-3s-1.65.31-1.6,3,1.73,2.35,1.73,2.35h80.11s1.86-.23,1.86-2.68-1.33-2.69-1.33-2.69Z"/><polygon class="cls-8" points="419.55 410.02 444.62 410.02 449.84 429.41 414.44 429.41 419.55 410.02"/><polygon class="cls-8" points="406.52 459.44 400.57 482.02 463.99 482.02 457.91 459.44 406.52 459.44"/><path class="cls-14" d="M419.75,429.92s.28-5.31,4.21-5.26,4.22,5.26,4.22,5.26"/><path class="cls-14" d="M437.12,429.92s.28-5.31,4.21-5.26,4.22,5.26,4.22,5.26"/><path class="cls-14" d="M417.17,449.56s1.47,12.17,15.44,10.74,14.5-10.74,14.5-10.74"/></g><g id="bras"><path d="M410.48,447.59s-9.27,23.54-15.14,20.47-7.08-26-7.08-26l-.75-10,5.78-.46s1.1,31.58,4.94,28.85,15.39-24.72,15.39-24.72l-3.14,11.91"/><path d="M387.51,432s-5.85-1.42-4.9-7.35,3.65-1.51,3.65-1.51-6.07-7.92.31-7.09a5.77,5.77,0,0,1,3.45,3.65s-3.57-5.95-1.47-6.71,4.47,3.83,4.47,3.83-1.66-4.92.45-4.6,9.29,9.09-.18,19.32Z"/><path d="M140.21,419.93s8.06,23.53,13.18,20.47,6.16-26,6.16-26l.65-10-5-.45s-.95,31.57-4.29,28.85S137.48,408,137.48,408l2.73,11.92"/><path d="M160.2,404.34a6.32,6.32,0,0,0,4.26-7.34c-.83-5.92-3.17-1.52-3.17-1.52s5.28-7.91-.28-7.08a5.38,5.38,0,0,0-3,3.65s3.12-5.95,1.28-6.72-3.89,3.83-3.89,3.83,1.45-4.91-.39-4.59-8.08,9.09.15,19.32Z"/></g></svg>