<svg xmlns="http://www.w3.org/2000/svg" viewBox="0 0 721.91 968.7"><defs><style>.cls-1{fill:#ff8c3f;}.cls-2{fill:#3e3a46;}</style></defs><g id="Calque_2" data-name="Calque 2"><g id="Calque_1-2" data-name="Calque 1"><ellipse class="cls-1" cx="64.52" cy="907.47" rx="64.42" ry="60.76"/><path class="cls-2" d="M128.94,804.76H.1v-653A146.81,146.81,0,0,1,17.84,76.12c4.24-7.73,24.84-43.62,69-63.09C132.33-7,194.43-5.93,237.67,30.59c22.8,19.27,33.44,42.52,38.25,55.59l111.45,294c12.34,31.85-2.74,67.67-32.57,80.8-31.62,13.92-70.48-1.77-83.76-35.52L166.55,132.85a19.87,19.87,0,0,0-37.61,9.05Z"/><ellipse class="cls-1" cx="657.39" cy="61.23" rx="64.42" ry="60.76"/><path class="cls-2" d="M593,163.93H721.81v653a146.83,146.83,0,0,1-17.74,75.66c-4.24,7.72-24.84,43.61-69,63.08-45.52,20.08-107.63,19-150.87-17.56-22.8-19.26-33.43-42.51-38.24-55.58l-111.46-294c-12.33-31.84,2.75-67.67,32.58-80.8,31.62-13.92,70.48,1.78,83.76,35.52L555.36,835.85A19.87,19.87,0,0,0,593,826.79Z"/></g></g></svg>