<svg xmlns="http://www.w3.org/2000/svg" viewBox="0 0 209.86 281.6"><defs><style>.cls-1{fill:#ff8c3f;}.cls-2{fill:#fff;}</style></defs><g id="Calque_2" data-name="Calque 2"><g id="Calque_1-2" data-name="Calque 1"><ellipse class="cls-1" cx="18.76" cy="263.8" rx="18.73" ry="17.66"/><path class="cls-2" d="M37.48,233.94H0V44.12a42.63,42.63,0,0,1,5.16-22,43.35,43.35,0,0,1,20-18.34C38.47-2,56.52-1.72,69.09,8.89A38.53,38.53,0,0,1,80.21,25.05l32.4,85.46a18.15,18.15,0,1,1-33.82,13.16L48.42,38.62a5.78,5.78,0,0,0-10.94,2.63Z"/><ellipse class="cls-1" cx="191.1" cy="17.8" rx="18.73" ry="17.66"/><path class="cls-2" d="M172.38,47.66h37.45V237.48a42.63,42.63,0,0,1-5.16,22,43.35,43.35,0,0,1-20,18.34c-13.23,5.84-31.28,5.51-43.85-5.11a38.46,38.46,0,0,1-11.12-16.15l-32.4-85.46a18.15,18.15,0,1,1,33.82-13.16l30.37,85a5.78,5.78,0,0,0,10.94-2.63Z"/></g></g></svg>