<svg xmlns="http://www.w3.org/2000/svg" viewBox="0 0 407.94 248.07"><defs><style>.cls-1{fill:#e8d29c;}.cls-2{fill:#bfa66d;}.cls-3,.cls-4{fill:#fddf19;}.cls-4{stroke:#020202;}.cls-11,.cls-12,.cls-13,.cls-14,.cls-4{stroke-miterlimit:10;}.cls-5{fill:#2f2c36;}.cls-6{fill:#e8600a;}.cls-7{fill:#c9500d;}.cls-8{fill:#fff;}.cls-9{fill:#050505;}.cls-10{fill:#441919;}.cls-11{fill:#f9f9f9;}.cls-11,.cls-13{stroke:#000;stroke-width:0.25px;}.cls-12,.cls-13,.cls-14{fill:none;}.cls-12,.cls-14{stroke:#040505;}.cls-14{stroke-width:2px;}</style></defs><g id="Calque_2" data-name="Calque 2"><g id="panneau"><g id="Calque_5" data-name="Calque 5"><polygon class="cls-1" points="91.76 71.49 85.59 133.53 95.44 134.51 101.6 72.62 91.76 71.49"/><polygon class="cls-2" points="91.02 78.95 100.87 79.93 101.6 72.59 91.76 71.49 91.02 78.95"/><polygon class="cls-1" points="322.28 94.42 316.11 156.46 325.96 157.44 332.12 95.55 322.28 94.42"/><polygon class="cls-2" points="321.54 101.88 331.39 102.86 332.12 95.52 322.28 94.42 321.54 101.88"/></g><g id="Haut"><rect class="cls-3" x="46.84" y="15.48" width="335.72" height="68.2" rx="13.45" transform="translate(5.96 -21.01) rotate(5.68)"/><polygon points="174.39 11.3 170.4 10.9 113.27 73.75 117.26 74.15 174.39 11.3"/><polygon points="165.59 10.43 160.9 9.96 103.77 72.81 108.46 73.28 165.59 10.43"/><polygon points="156.1 9.48 152.03 9.08 94.9 71.93 98.97 72.33 156.1 9.48"/><polygon points="147.23 8.6 141.97 8.08 84.84 70.93 90.1 71.45 147.23 8.6"/><polygon points="192.75 13.13 188.06 12.66 130.93 75.51 135.62 75.98 192.75 13.13"/><polygon points="183.26 12.18 179.19 11.78 122.06 74.63 126.13 75.03 183.26 12.18"/><polygon points="201.89 14.04 197.56 13.61 140.43 76.45 144.76 76.89 201.89 14.04"/><polygon points="210.76 14.92 206.7 14.52 149.57 77.36 153.63 77.77 210.76 14.92"/><polygon points="220.26 15.86 215.56 15.4 158.43 78.25 163.13 78.71 220.26 15.86"/><polygon points="82.5 2.16 77.81 1.7 47.45 35.09 46.82 41.42 82.5 2.16"/><polygon points="91.3 3.04 87.31 2.64 46.18 47.89 45.64 53.27 91.3 3.04"/><polygon points="73.01 1.22 68.94 0.81 48.64 23.15 48.09 28.63 73.01 1.22"/><polygon points="230.61 16.89 225.06 16.34 167.93 79.19 173.48 79.74 230.61 16.89"/><path d="M64.14.34,60.8,0h-.09l-11,12.07-.46,4.61Z"/><polygon points="137.17 7.6 132.47 7.13 75.34 69.98 80.04 70.45 137.17 7.6"/><polygon points="380.75 76.13 360.55 98.35 363.86 98.68 380.31 80.59 380.75 76.13"/><polygon points="127.67 6.66 123.61 6.25 66.48 69.1 70.54 69.5 127.67 6.66"/><polygon points="118.81 5.77 114.47 5.34 57.34 68.19 61.67 68.62 118.81 5.77"/><path d="M109.66,4.86,105,4.4,49.13,65.82a9.34,9.34,0,0,0,3.51,1.78Z"/><path d="M100.17,3.92,96.1,3.51,45.42,59.27a10.66,10.66,0,0,0,1.21,3.55Z"/><polygon points="294.14 23.21 290.08 22.81 232.94 85.66 237.01 86.06 294.14 23.21"/><polygon points="366.75 30.43 362.41 30 305.28 92.85 309.62 93.28 366.75 30.43"/><polygon points="239.47 17.77 235.41 17.37 178.28 80.22 182.34 80.62 239.47 17.77"/><path d="M375.6,31.33l-.25,0-3.8-.38L314.42,93.76l4.06.4Z"/><polygon points="357.61 29.52 352.92 29.06 295.78 91.91 300.48 92.37 357.61 29.52"/><polygon points="348.11 28.58 344.05 28.18 286.92 91.03 290.98 91.43 348.11 28.58"/><polygon points="381.39 69.66 382.02 63.34 351.05 97.4 355.75 97.87 381.39 69.66"/><path d="M383.85,44.92l.22-2.18a11.09,11.09,0,0,0-.18-3.37L332.78,95.59l4.6.45Z"/><path d="M368.67,99.15c5.36.49,10.16-3.75,10.74-9.51l.25-2.58Z"/><polygon points="339.25 27.7 335.25 27.3 278.12 90.15 282.11 90.55 339.25 27.7"/><polygon points="382.67 56.87 383.21 51.39 342.19 96.52 346.25 96.93 382.67 56.87"/><path d="M382.22,35.44a9.9,9.9,0,0,0-2.7-2.66L323.29,94.64l4.69.47Z"/><polygon points="276.13 21.42 271.44 20.95 214.31 83.8 219 84.27 276.13 21.42"/><polygon points="266.63 20.48 262.57 20.07 205.44 82.92 209.5 83.33 266.63 20.48"/><polygon points="257.77 19.59 253.78 19.2 196.64 82.05 200.64 82.44 257.77 19.59"/><polygon points="248.97 18.72 244.28 18.25 187.15 81.1 191.84 81.57 248.97 18.72"/><polygon points="312.08 25 308.44 24.63 251.31 87.48 254.95 87.85 312.08 25"/><polygon points="320.95 25.88 316.89 25.47 259.76 88.32 263.82 88.73 320.95 25.88"/><polygon points="285.27 22.33 280.94 21.9 223.8 84.75 228.14 85.18 285.27 22.33"/><polygon points="330.45 26.82 325.75 26.36 268.62 89.21 273.32 89.67 330.45 26.82"/><polygon points="303.64 24.16 298.94 23.69 241.81 86.54 246.5 87.01 303.64 24.16"/><rect class="cls-4" x="51.71" y="20.67" width="325.98" height="57.82" rx="7.39" transform="translate(5.96 -21.01) rotate(5.68)"/><path class="cls-5" d="M67.28,27.42,70.55,39.7l5.58-11.42,2.31.23L77,43l-1.78-.17.55-5.66.77-6.09L71,42.44,69.6,42.3,66.31,30.14l-.42,6.09-.55,5.66-1.78-.18L65,27.19Z"/><path class="cls-5" d="M84.06,43.92a4.24,4.24,0,0,1-3.19-1.77,5.6,5.6,0,0,1-.9-4l0-.34A6.91,6.91,0,0,1,80.85,35a4.82,4.82,0,0,1,1.79-1.82,3.82,3.82,0,0,1,2.3-.49,3.67,3.67,0,0,1,2.91,1.68,6.32,6.32,0,0,1,.7,4.08l-.07.77-6.82-.67a4,4,0,0,0,.62,2.66,2.64,2.64,0,0,0,2,1.19,2.8,2.8,0,0,0,1.58-.25,4,4,0,0,0,1.21-.94l1,1A4.19,4.19,0,0,1,84.06,43.92Zm.73-9.7a2.27,2.27,0,0,0-1.83.65,4.05,4.05,0,0,0-1.09,2.19l5,.49,0-.14a3.73,3.73,0,0,0-.49-2.25A2.14,2.14,0,0,0,84.79,34.22Z"/><path class="cls-5" d="M95.74,35.64a4,4,0,0,0-.84-.16,2.26,2.26,0,0,0-2.44,1.33l-.75,7.66L90,44.3,91,33.51l1.68.16-.1,1.25a2.66,2.66,0,0,1,2.54-1.21,1.6,1.6,0,0,1,.75.21Z"/><path class="cls-5" d="M100.41,44a2.41,2.41,0,0,0,1.67-.44,2.18,2.18,0,0,0,.91-1.43l1.63.16a3.58,3.58,0,0,1-.77,1.71,4,4,0,0,1-1.6,1.19,3.87,3.87,0,0,1-2,.31,4,4,0,0,1-3.13-1.79,6.22,6.22,0,0,1-.82-4.14l0-.31a7,7,0,0,1,.82-2.75,4.35,4.35,0,0,1,1.73-1.75,4.18,4.18,0,0,1,2.45-.45,3.94,3.94,0,0,1,2.71,1.36,4.08,4.08,0,0,1,.92,2.94l-1.63-.16a2.62,2.62,0,0,0-.57-1.79,2.21,2.21,0,0,0-1.58-.83,2.35,2.35,0,0,0-2.13.81,5.06,5.06,0,0,0-1,2.86l0,.35a5,5,0,0,0,.44,2.94A2.37,2.37,0,0,0,100.41,44Z"/><path class="cls-5" d="M107.56,32.23a1.15,1.15,0,0,1,.33-.73,1,1,0,0,1,.79-.24.92.92,0,0,1,.73.39,1.14,1.14,0,0,1,.19.78,1.07,1.07,0,0,1-.34.72,1,1,0,0,1-.79.23,1,1,0,0,1-.73-.38A1.1,1.1,0,0,1,107.56,32.23Zm.52,13.84-1.72-.17,1.06-10.79,1.72.16Z"/><path class="cls-5" d="M111,40.81a6.74,6.74,0,0,1,1.49-3.89,3.59,3.59,0,0,1,5.69.34l.55-5.63,1.72.17-1.5,15.32L117.32,47l0-1.17a3.41,3.41,0,0,1-3,1.08,3.37,3.37,0,0,1-2.7-1.81,6.74,6.74,0,0,1-.71-4.12Zm1.7.38a5,5,0,0,0,.43,2.94,2.26,2.26,0,0,0,1.85,1.23A2.52,2.52,0,0,0,117.47,44l.49-4.95a2.53,2.53,0,0,0-2.22-1.76,2.27,2.27,0,0,0-2.08.85A5.66,5.66,0,0,0,112.65,41.19Z"/><path class="cls-5" d="M125.72,48a4.23,4.23,0,0,1-3.18-1.77,5.6,5.6,0,0,1-.91-4l0-.33a6.92,6.92,0,0,1,.86-2.82,4.75,4.75,0,0,1,1.79-1.82,3.9,3.9,0,0,1,2.3-.49,3.7,3.7,0,0,1,2.91,1.68,6.45,6.45,0,0,1,.7,4.08l-.08.77-6.81-.67a4,4,0,0,0,.61,2.67,2.7,2.7,0,0,0,2,1.18,2.86,2.86,0,0,0,1.58-.24,4.07,4.07,0,0,0,1.21-1l1,1A4.17,4.17,0,0,1,125.72,48Zm.74-9.69a2.21,2.21,0,0,0-1.83.64,4.13,4.13,0,0,0-1.1,2.19l5,.49v-.14a3.61,3.61,0,0,0-.49-2.24A2.08,2.08,0,0,0,126.46,38.3Z"/><path class="cls-5" d="M135.1,46.18l3.3-8,1.75.17-4.66,10.44-1.31-.12L131.6,37.47l1.75.17Z"/><path class="cls-5" d="M140.7,43.7a6.77,6.77,0,0,1,.86-2.79,4.58,4.58,0,0,1,1.8-1.8,4.29,4.29,0,0,1,2.44-.46A4.16,4.16,0,0,1,149,40.51a6.12,6.12,0,0,1,.87,4.18v.13a6.77,6.77,0,0,1-.84,2.77,4.49,4.49,0,0,1-1.8,1.79,4.22,4.22,0,0,1-2.47.47A4.13,4.13,0,0,1,141.56,48a6.16,6.16,0,0,1-.88-4.17Zm1.7.39a4.9,4.9,0,0,0,.5,3,2.53,2.53,0,0,0,4.16.39,5.39,5.39,0,0,0,1.07-3,4.84,4.84,0,0,0-.5-3,2.46,2.46,0,0,0-2-1.31,2.42,2.42,0,0,0-2.16.89A5.35,5.35,0,0,0,142.4,44.09Z"/><path class="cls-5" d="M155.11,37.13l-.25,2.61,1.88.19-.14,1.42-1.88-.18-.66,6.7a1.59,1.59,0,0,0,.16,1,1,1,0,0,0,.82.41,5.29,5.29,0,0,0,.83,0l-.15,1.48a4.65,4.65,0,0,1-1.33.07,2.07,2.07,0,0,1-1.67-.92,3.38,3.38,0,0,1-.38-2.18L153,41l-1.83-.18.14-1.43,1.83.18.25-2.61Z"/><path class="cls-5" d="M163.44,42.25a4.86,4.86,0,0,0-.84-.15,2.27,2.27,0,0,0-2.44,1.32l-.75,7.66-1.72-.17,1.05-10.79,1.68.16-.1,1.25a2.68,2.68,0,0,1,2.54-1.21,1.71,1.71,0,0,1,.75.22Z"/><path class="cls-5" d="M168.28,52.15a4.27,4.27,0,0,1-3.19-1.77,5.6,5.6,0,0,1-.9-4l0-.34a7.07,7.07,0,0,1,.85-2.81,4.84,4.84,0,0,1,1.8-1.82,3.87,3.87,0,0,1,2.29-.49,3.7,3.7,0,0,1,2.92,1.68,6.39,6.39,0,0,1,.69,4.08l-.07.77-6.81-.67a4,4,0,0,0,.61,2.66,2.66,2.66,0,0,0,2,1.19,2.86,2.86,0,0,0,1.58-.24,4.2,4.2,0,0,0,1.21-.95l1,1A4.17,4.17,0,0,1,168.28,52.15Zm.73-9.7a2.24,2.24,0,0,0-1.82.65,4.06,4.06,0,0,0-1.1,2.19l5,.49v-.14a3.73,3.73,0,0,0-.49-2.25A2.13,2.13,0,0,0,169,42.45Z"/><path class="cls-5" d="M178.37,51.62a2.36,2.36,0,0,0,1.67-.45,2.13,2.13,0,0,0,.91-1.42l1.62.16a3.47,3.47,0,0,1-.76,1.71,4.06,4.06,0,0,1-1.6,1.19,3.87,3.87,0,0,1-2,.31,4,4,0,0,1-3.13-1.79,6.22,6.22,0,0,1-.82-4.14l0-.31a7,7,0,0,1,.82-2.75,4.29,4.29,0,0,1,1.73-1.75,4.18,4.18,0,0,1,2.45-.45A3.9,3.9,0,0,1,182,43.29a4,4,0,0,1,.91,2.94l-1.62-.16a2.62,2.62,0,0,0-.57-1.79,2.23,2.23,0,0,0-1.58-.83,2.35,2.35,0,0,0-2.13.81,5.06,5.06,0,0,0-1,2.86l0,.35a5,5,0,0,0,.44,2.94A2.37,2.37,0,0,0,178.37,51.62Z"/><path class="cls-5" d="M184.26,48a6.68,6.68,0,0,1,.86-2.79,4.54,4.54,0,0,1,1.81-1.8,4.24,4.24,0,0,1,2.43-.46,4.13,4.13,0,0,1,3.17,1.85A6.15,6.15,0,0,1,193.4,49v.13a6.77,6.77,0,0,1-.84,2.77,4.55,4.55,0,0,1-1.8,1.79,4.28,4.28,0,0,1-2.47.47,4.13,4.13,0,0,1-3.16-1.85,6.16,6.16,0,0,1-.88-4.17Zm1.7.39a4.92,4.92,0,0,0,.5,3,2.53,2.53,0,0,0,4.16.39,5.32,5.32,0,0,0,1.07-3,4.88,4.88,0,0,0-.5-3,2.53,2.53,0,0,0-4.14-.42A5.41,5.41,0,0,0,186,48.35Z"/><path class="cls-5" d="M197.71,43.93l-.07,1.36A3.6,3.6,0,0,1,200.8,44c2.13.21,3.07,1.6,2.84,4.17l-.7,7.14-1.72-.17.7-7.14a2.63,2.63,0,0,0-.33-1.78,1.91,1.91,0,0,0-1.46-.7,2.33,2.33,0,0,0-1.52.33A3.34,3.34,0,0,0,197.5,47l-.75,7.69L195,54.56l1.06-10.79Z"/><path class="cls-5" d="M206.38,55.67l.92-9.36-1.59-.16.14-1.43,1.59.16.1-1.11a3.91,3.91,0,0,1,1.13-2.6,3.15,3.15,0,0,1,2.54-.7,4,4,0,0,1,1.16.28l-.24,1.48a4.29,4.29,0,0,0-.92-.18,1.6,1.6,0,0,0-1.34.4,2.19,2.19,0,0,0-.6,1.46l-.12,1.14,2.15.21-.14,1.42L209,46.47l-.91,9.37Z"/><path class="cls-5" d="M213.49,42.58a1.15,1.15,0,0,1,.33-.73.93.93,0,0,1,.78-.24,1,1,0,0,1,.74.39,1.14,1.14,0,0,1,.18.78,1.1,1.1,0,0,1-.33.72,1.1,1.1,0,0,1-1.52-.15A1.1,1.1,0,0,1,213.49,42.58ZM214,56.42l-1.72-.17,1.06-10.79,1.72.17Z"/><path class="cls-5" d="M223,57.29a4.11,4.11,0,0,1-.13-1.16,3.73,3.73,0,0,1-3,1.06,3.45,3.45,0,0,1-2.35-1.14,3.06,3.06,0,0,1-.73-2.38,3.16,3.16,0,0,1,1.46-2.51,5.38,5.38,0,0,1,3.45-.6l1.67.16.08-.84a2.12,2.12,0,0,0-.39-1.6,2.07,2.07,0,0,0-1.53-.73,2.42,2.42,0,0,0-1.59.35,1.49,1.49,0,0,0-.74,1.15l-1.73-.17a2.64,2.64,0,0,1,.69-1.51,3.6,3.6,0,0,1,1.56-1,4.71,4.71,0,0,1,2.06-.24,3.77,3.77,0,0,1,2.63,1.2,3.47,3.47,0,0,1,.77,2.66l-.49,5a6.61,6.61,0,0,0,.13,2.4l0,.16Zm-2.72-1.68a2.93,2.93,0,0,0,1.58-.3A2.7,2.7,0,0,0,223,54.24l.21-2.21-1.35-.13c-2.1-.21-3.22.35-3.35,1.67a1.73,1.73,0,0,0,.41,1.41A2,2,0,0,0,220.25,55.61Z"/><path class="cls-5" d="M229.8,47.07l-.08,1.36a3.57,3.57,0,0,1,3.16-1.26q3.19.3,2.84,4.17l-.7,7.13-1.72-.17.7-7.14a2.59,2.59,0,0,0-.33-1.77,1.89,1.89,0,0,0-1.46-.71,2.42,2.42,0,0,0-1.52.34,3.08,3.08,0,0,0-1.1,1.16l-.76,7.69-1.72-.17,1.06-10.79Z"/><path class="cls-5" d="M241.78,57.81a2.33,2.33,0,0,0,1.66-.44,2.16,2.16,0,0,0,.91-1.42l1.63.16a3.57,3.57,0,0,1-.77,1.71,4.22,4.22,0,0,1-6.7-.29,6.16,6.16,0,0,1-.82-4.14l0-.31a6.87,6.87,0,0,1,.81-2.75,4.34,4.34,0,0,1,1.74-1.76,4.22,4.22,0,0,1,2.45-.44,3.87,3.87,0,0,1,2.7,1.36,4,4,0,0,1,.92,2.94l-1.63-.16a2.62,2.62,0,0,0-.57-1.79,2.22,2.22,0,0,0-1.57-.84,2.36,2.36,0,0,0-2.13.82,5,5,0,0,0-1,2.85l0,.35a5,5,0,0,0,.43,3A2.36,2.36,0,0,0,241.78,57.81Z"/><path class="cls-5" d="M251.73,60.31a4.3,4.3,0,0,1-3.18-1.77,5.61,5.61,0,0,1-.91-4l0-.34a6.72,6.72,0,0,1,.85-2.81,4.68,4.68,0,0,1,1.79-1.82,3.91,3.91,0,0,1,2.3-.5,3.68,3.68,0,0,1,2.91,1.69,6.34,6.34,0,0,1,.7,4.07l-.08.77L249.34,55a4,4,0,0,0,.62,2.66,2.64,2.64,0,0,0,2,1.19,2.82,2.82,0,0,0,1.59-.25,3.85,3.85,0,0,0,1.2-1l1,1A4.18,4.18,0,0,1,251.73,60.31Zm.74-9.7a2.24,2.24,0,0,0-1.83.64,4.2,4.2,0,0,0-1.1,2.2l5,.49V53.8a3.66,3.66,0,0,0-.49-2.25A2.08,2.08,0,0,0,252.47,50.61Z"/><path class="cls-5" d="M273,57.13a7.11,7.11,0,0,1-1.49,3.7A3.15,3.15,0,0,1,268.69,62a2.13,2.13,0,0,1-2.06-1.89,3.76,3.76,0,0,1-1.27,1.15,2.46,2.46,0,0,1-1.38.28,2.16,2.16,0,0,1-1.88-1.35,5.4,5.4,0,0,1-.19-3.25,9.34,9.34,0,0,1,1-2.87,5.5,5.5,0,0,1,1.65-1.89,2.86,2.86,0,0,1,1.93-.55,4,4,0,0,1,1.33.34,4.91,4.91,0,0,1,1.26,1l-1,5.48c-.27,1.52,0,2.33,1,2.42a2,2,0,0,0,1.81-1,6.3,6.3,0,0,0,1-2.84c.37-2.57.11-4.59-.77-6a5.4,5.4,0,0,0-4.42-2.49,5.78,5.78,0,0,0-3.42.67,6.65,6.65,0,0,0-2.56,2.64A11.89,11.89,0,0,0,259.27,56a11.1,11.1,0,0,0,.14,4.35,5.74,5.74,0,0,0,1.77,3,5.66,5.66,0,0,0,3.22,1.29,7,7,0,0,0,1.7-.06,5.19,5.19,0,0,0,1.45-.43l.23,1.18a5.24,5.24,0,0,1-1.59.49,8,8,0,0,1-1.95.06,7.08,7.08,0,0,1-3.89-1.51,6.83,6.83,0,0,1-2.19-3.48,12.23,12.23,0,0,1-.23-5,12.61,12.61,0,0,1,1.62-4.82A8.19,8.19,0,0,1,262.68,48a7.48,7.48,0,0,1,8,.7,6.65,6.65,0,0,1,2.15,3.46A12.59,12.59,0,0,1,273,57.13ZM263.39,57a4.18,4.18,0,0,0,0,2.2,1.28,1.28,0,0,0,1.12.88,1.54,1.54,0,0,0,1.12-.41,3.77,3.77,0,0,0,1-1.37v-.09l.92-5a2.22,2.22,0,0,0-1.08-.4,2.08,2.08,0,0,0-1.92,1A7.63,7.63,0,0,0,263.39,57Z"/><path class="cls-5" d="M278.91,63a4.27,4.27,0,0,1-3.19-1.76,5.63,5.63,0,0,1-.9-4l0-.33a7.12,7.12,0,0,1,.85-2.82,4.67,4.67,0,0,1,1.8-1.81,3.8,3.8,0,0,1,2.29-.5,3.67,3.67,0,0,1,2.91,1.68,6.32,6.32,0,0,1,.7,4.08l-.07.77-6.82-.67a4.1,4.1,0,0,0,.62,2.67,2.66,2.66,0,0,0,2,1.18,2.88,2.88,0,0,0,1.58-.24,4,4,0,0,0,1.21-.95l1,1A4.16,4.16,0,0,1,278.91,63Zm.73-9.69a2.2,2.2,0,0,0-1.82.64,4.09,4.09,0,0,0-1.1,2.19l5,.49v-.14a3.68,3.68,0,0,0-.49-2.24A2.1,2.1,0,0,0,279.64,53.27Z"/><path class="cls-5" d="M287.51,52.71l-.07,1.2a3.63,3.63,0,0,1,3.12-1.11,2.88,2.88,0,0,1,2.71,2,3.92,3.92,0,0,1,1.42-1.13,3.57,3.57,0,0,1,1.95-.29q3.32.32,3,4.09l-.71,7.23-1.72-.17.7-7.12a2.59,2.59,0,0,0-.33-1.78,2.07,2.07,0,0,0-1.59-.74,2.2,2.2,0,0,0-1.65.46,2.63,2.63,0,0,0-.9,1.58l-.7,7.16L291,63.94l.69-7.07c.16-1.57-.48-2.42-1.91-2.56a2.31,2.31,0,0,0-2.47,1.32l-.77,7.88-1.72-.17,1.06-10.79Z"/><path class="cls-5" d="M307.73,65.58a4.17,4.17,0,0,1-.13-1.16,3.73,3.73,0,0,1-3,1,3.35,3.35,0,0,1-2.35-1.14,3,3,0,0,1-.73-2.38,3.14,3.14,0,0,1,1.45-2.5,5.34,5.34,0,0,1,3.45-.61l1.67.17.09-.85a2.17,2.17,0,0,0-.39-1.59,2.1,2.1,0,0,0-1.54-.73,2.36,2.36,0,0,0-1.59.35,1.5,1.5,0,0,0-.74,1.14l-1.73-.17a2.71,2.71,0,0,1,.69-1.51,3.88,3.88,0,0,1,1.57-1,4.66,4.66,0,0,1,2.05-.24,3.77,3.77,0,0,1,2.63,1.2,3.45,3.45,0,0,1,.77,2.67l-.48,5a6.35,6.35,0,0,0,.12,2.39l0,.16ZM305,63.89a2.91,2.91,0,0,0,1.57-.3,2.63,2.63,0,0,0,1.17-1.06l.21-2.22-1.34-.13q-3.17-.3-3.36,1.68a1.76,1.76,0,0,0,.41,1.41A2,2,0,0,0,305,63.89Z"/><path class="cls-5" d="M313.22,52.33a1.13,1.13,0,0,1,.33-.73,1,1,0,0,1,.79-.24.92.92,0,0,1,.73.38,1.13,1.13,0,0,1,.19.79,1.07,1.07,0,0,1-.34.72.93.93,0,0,1-.79.22,1,1,0,0,1-.73-.37A1.1,1.1,0,0,1,313.22,52.33Zm.52,13.83L312,66l1.06-10.8,1.72.17Z"/><path class="cls-5" d="M318.36,66.62l-1.72-.17,1.5-15.32,1.72.17Z"/><path class="cls-5" d="M321.25,65.92a1.17,1.17,0,0,1,.34-.77,1,1,0,0,1,.83-.24,1,1,0,0,1,.77.4,1.14,1.14,0,0,1,.19.82,1.08,1.08,0,0,1-.35.74,1,1,0,0,1-.83.23,1,1,0,0,1-.76-.38A1.15,1.15,0,0,1,321.25,65.92Z"/><path class="cls-5" d="M330.29,66.46A2.35,2.35,0,0,0,332,66a2.16,2.16,0,0,0,.91-1.42l1.63.16a3.57,3.57,0,0,1-.77,1.71,4,4,0,0,1-1.6,1.19A4.26,4.26,0,0,1,327,66.18,6.18,6.18,0,0,1,326.2,62l0-.3A6.82,6.82,0,0,1,327,59a4.38,4.38,0,0,1,1.73-1.76,4.17,4.17,0,0,1,2.45-.44,3.9,3.9,0,0,1,2.71,1.36,4,4,0,0,1,.92,2.94l-1.63-.16a2.62,2.62,0,0,0-.57-1.79,2.22,2.22,0,0,0-1.57-.84,2.36,2.36,0,0,0-2.13.82,5,5,0,0,0-1,2.85l0,.35a4.86,4.86,0,0,0,.43,2.94A2.35,2.35,0,0,0,330.29,66.46Z"/><path class="cls-5" d="M336.17,62.81A6.77,6.77,0,0,1,337,60a4.57,4.57,0,0,1,1.81-1.79,4.41,4.41,0,0,1,5.61,1.39,6.23,6.23,0,0,1,.87,4.18l0,.13a6.72,6.72,0,0,1-.84,2.77,4.45,4.45,0,0,1-1.8,1.8,4.28,4.28,0,0,1-2.47.46A4.12,4.12,0,0,1,337,67.1a6.09,6.09,0,0,1-.87-4.16Zm1.71.39a4.81,4.81,0,0,0,.49,3,2.54,2.54,0,0,0,4.16.4,5.35,5.35,0,0,0,1.08-3,4.92,4.92,0,0,0-.51-3,2.51,2.51,0,0,0-4.14-.42A5.31,5.31,0,0,0,337.88,63.2Z"/><path class="cls-5" d="M349.62,58.77,349.55,60a3.61,3.61,0,0,1,3.12-1.11,2.87,2.87,0,0,1,2.7,2,3.87,3.87,0,0,1,1.43-1.13,3.52,3.52,0,0,1,1.94-.29q3.31.31,3,4.08L361,70.79l-1.72-.17.7-7.12a2.58,2.58,0,0,0-.32-1.78,2.1,2.1,0,0,0-1.6-.74,2.2,2.2,0,0,0-1.65.46,2.6,2.6,0,0,0-.9,1.58l-.7,7.16L353.11,70l.7-7.07c.15-1.57-.49-2.42-1.92-2.56a2.31,2.31,0,0,0-2.47,1.32l-.77,7.88-1.72-.17L348,58.62Z"/></g></g><g id="CÖNE_g" data-name="CÖNE g"><path d="M34.12,226.09l2.36,16.77s-13.66-1.43-14.31,5.21H46.06s-7-8.94-.43-22S34.12,226.09,34.12,226.09Z"/><path d="M67.19,226.09l-2.37,16.77s13.67-1.43,14.32,5.21H55.25s7-8.94.43-22S67.19,226.09,67.19,226.09Z"/><path class="cls-6" d="M43.59,86.17s.64-4.85,6.45-5a6.27,6.27,0,0,1,6.68,5L92,217.25H9L43.59,86.17"/><polyline class="cls-7" points="9.04 217.25 5.54 217.25 5.54 219.56 96.32 219.56 96.32 217.25 9.04 217.25"/><path class="cls-6" d="M5.54,219.56H1.94s-2,.38-1.94,3.66,2.1,2.85,2.1,2.85H99.15s2.26-.28,2.26-3.24-1.62-3.27-1.62-3.27Z"/><polygon class="cls-8" points="35.05 118.56 65.43 118.56 71.74 142.05 28.86 142.05 35.05 118.56"/><polygon class="cls-8" points="19.27 178.44 12.06 205.8 88.88 205.8 81.53 178.44 19.27 178.44"/><polygon class="cls-9" points="35.7 132.26 45.83 136.43 37.41 143.16 38.43 140.43 35.7 140.52 41.83 137.19 34.09 134.05 36.9 134.22 35.7 132.26"/><polygon class="cls-9" points="64.64 132.26 54.51 136.43 62.93 143.16 61.91 140.43 64.64 140.52 58.51 137.19 66.25 134.05 65.55 133.11 64.64 132.26"/></g><g id="Calque_7" data-name="Calque 7"><g id="Calque_8" data-name="Calque 8"><path class="cls-10" d="M34.22,169.55s1.48,4.85,4.39,5.39,24.39,1,26.23-2,1.93-4.32,1.93-4.32l-33-.41.15,2.11Z"/></g><path class="cls-11" d="M36.94,169a3.39,3.39,0,0,0,1,3,3.48,3.48,0,0,0,.36,4.05c1.68,2.07,11.17,5.22,19.93,1.09s5.45-3.05,5.45-3.05a2.61,2.61,0,0,0,0-2.48s1.41-2.17-.34-2.85S36.94,169,36.94,169Z"/><path class="cls-12" d="M67,168.46s-.58,9.32-16,10.74-17.09-10.74-17.09-10.74Z"/><path class="cls-13" d="M37.92,172l3.53.38.3,1.06.68-1.1s10.88,1.45,16.34-.34l.64.51.42-.51a14.48,14.48,0,0,0,3.87-.39"/></g><g id="cone_d" data-name="cone d"><path d="M352.4,229.32l2,13.84s-11.28-1.17-11.81,4.3h19.72s-5.78-7.37-.36-18.14S352.4,229.32,352.4,229.32Z"/><path d="M379.7,229.32l-1.95,13.84s11.28-1.17,11.81,4.3H369.84s5.77-7.37.35-18.14S379.7,229.32,379.7,229.32Z"/><path class="cls-6" d="M360.21,113.82s.54-4,5.34-4.09a5.17,5.17,0,0,1,5.5,4.09L400.15,222H331.7l28.51-108.2"/><polyline class="cls-7" points="331.7 222.02 328.81 222.02 328.81 223.93 403.74 223.93 403.74 222.02 331.7 222.02"/><path class="cls-6" d="M328.81,223.93h-3s-1.65.31-1.6,3,1.73,2.36,1.73,2.36h80.11s1.86-.23,1.86-2.68-1.33-2.7-1.33-2.7Z"/><polygon class="cls-8" points="353.17 140.56 378.24 140.56 383.46 159.95 348.06 159.95 353.17 140.56"/><polygon class="cls-8" points="340.14 189.99 334.19 212.57 397.61 212.57 391.53 189.99 340.14 189.99"/><path class="cls-14" d="M353.37,160.46s.28-5.31,4.21-5.25,4.22,5.25,4.22,5.25"/><path class="cls-14" d="M370.73,160.46s.29-5.31,4.22-5.25,4.22,5.25,4.22,5.25"/><path class="cls-14" d="M350.79,180.11s1.47,12.16,15.44,10.74,14.5-10.74,14.5-10.74"/></g><g id="bras"><path d="M344.1,178.13s-9.27,23.54-15.14,20.48-7.09-26-7.09-26l-.74-10,5.78-.45s1.1,31.57,4.93,28.85,15.39-24.73,15.39-24.73l-3.13,11.91"/><path d="M321.13,162.55s-5.86-1.42-4.9-7.34,3.64-1.52,3.64-1.52-6.06-7.92.32-7.09a5.77,5.77,0,0,1,3.45,3.66s-3.57-5.95-1.47-6.72,4.47,3.83,4.47,3.83-1.66-4.92.45-4.6,9.29,9.1-.18,19.33Z"/><path d="M73.83,150.47S81.89,174,87,170.94s6.17-26,6.17-26l.65-10-5-.46s-1,31.58-4.29,28.85-13.4-24.72-13.4-24.72l2.74,11.91"/><path d="M93.82,134.89a6.33,6.33,0,0,0,4.26-7.35c-.84-5.92-3.17-1.51-3.17-1.51s5.28-7.92-.28-7.09a5.39,5.39,0,0,0-3,3.65s3.11-6,1.28-6.71S89,119.71,89,119.71s1.45-4.92-.39-4.6-8.09,9.09.15,19.32Z"/></g></g></svg>